<mxfile host="app.diagrams.net" modified="2021-04-27T06:34:13.663Z" agent="5.0 (Windows NT 10.0; Win64; x64) AppleWebKit/537.36 (KHTML, like Gecko) Chrome/89.0.4389.105 YaBrowser/21.3.2.193 Yowser/2.5 Safari/537.36" etag="_FdN4bkihmEIYWJrEIiO" version="14.6.6" type="github">
  <diagram id="tms1VqsZTAOSbZIt14dY" name="Page-1">
    <mxGraphModel dx="2201" dy="765" grid="1" gridSize="10" guides="1" tooltips="1" connect="1" arrows="1" fold="1" page="1" pageScale="1" pageWidth="827" pageHeight="1169" math="0" shadow="0">
      <root>
        <mxCell id="0" />
        <mxCell id="1" parent="0" />
        <mxCell id="c1GoCJi3KVozLX8m_W8n-4" value="" style="edgeStyle=orthogonalEdgeStyle;rounded=0;orthogonalLoop=1;jettySize=auto;html=1;" edge="1" parent="1" source="c1GoCJi3KVozLX8m_W8n-2" target="c1GoCJi3KVozLX8m_W8n-3">
          <mxGeometry relative="1" as="geometry" />
        </mxCell>
        <mxCell id="c1GoCJi3KVozLX8m_W8n-2" value="НАЧАЛО" style="ellipse;whiteSpace=wrap;html=1;" vertex="1" parent="1">
          <mxGeometry x="310" y="160" width="170" height="60" as="geometry" />
        </mxCell>
        <mxCell id="c1GoCJi3KVozLX8m_W8n-14" value="" style="edgeStyle=orthogonalEdgeStyle;rounded=0;orthogonalLoop=1;jettySize=auto;html=1;" edge="1" parent="1" source="c1GoCJi3KVozLX8m_W8n-3" target="c1GoCJi3KVozLX8m_W8n-13">
          <mxGeometry relative="1" as="geometry" />
        </mxCell>
        <mxCell id="c1GoCJi3KVozLX8m_W8n-3" value="Случайное число num" style="shape=parallelogram;perimeter=parallelogramPerimeter;whiteSpace=wrap;html=1;fixedSize=1;" vertex="1" parent="1">
          <mxGeometry x="310" y="240" width="170" height="60" as="geometry" />
        </mxCell>
        <mxCell id="c1GoCJi3KVozLX8m_W8n-18" value="" style="edgeStyle=orthogonalEdgeStyle;rounded=0;orthogonalLoop=1;jettySize=auto;html=1;" edge="1" parent="1" source="c1GoCJi3KVozLX8m_W8n-5" target="c1GoCJi3KVozLX8m_W8n-7">
          <mxGeometry relative="1" as="geometry" />
        </mxCell>
        <mxCell id="c1GoCJi3KVozLX8m_W8n-5" value="Вывод пользователю сообщения, что число загадано" style="rounded=0;whiteSpace=wrap;html=1;" vertex="1" parent="1">
          <mxGeometry x="310" y="420" width="170" height="50" as="geometry" />
        </mxCell>
        <mxCell id="c1GoCJi3KVozLX8m_W8n-19" value="" style="edgeStyle=orthogonalEdgeStyle;rounded=0;orthogonalLoop=1;jettySize=auto;html=1;" edge="1" parent="1" source="c1GoCJi3KVozLX8m_W8n-7" target="c1GoCJi3KVozLX8m_W8n-8">
          <mxGeometry relative="1" as="geometry" />
        </mxCell>
        <mxCell id="c1GoCJi3KVozLX8m_W8n-50" style="edgeStyle=orthogonalEdgeStyle;rounded=0;orthogonalLoop=1;jettySize=auto;html=1;exitX=0;exitY=0.5;exitDx=0;exitDy=0;entryX=0.5;entryY=0;entryDx=0;entryDy=0;" edge="1" parent="1" source="c1GoCJi3KVozLX8m_W8n-7" target="c1GoCJi3KVozLX8m_W8n-35">
          <mxGeometry relative="1" as="geometry">
            <Array as="points">
              <mxPoint x="70" y="520" />
              <mxPoint x="70" y="940" />
              <mxPoint x="190" y="940" />
            </Array>
          </mxGeometry>
        </mxCell>
        <mxCell id="c1GoCJi3KVozLX8m_W8n-7" value="10 раз: i,0,9" style="shape=hexagon;perimeter=hexagonPerimeter2;whiteSpace=wrap;html=1;fixedSize=1;" vertex="1" parent="1">
          <mxGeometry x="310" y="490" width="170" height="60" as="geometry" />
        </mxCell>
        <mxCell id="c1GoCJi3KVozLX8m_W8n-29" value="" style="edgeStyle=orthogonalEdgeStyle;rounded=0;orthogonalLoop=1;jettySize=auto;html=1;" edge="1" parent="1" source="c1GoCJi3KVozLX8m_W8n-8" target="c1GoCJi3KVozLX8m_W8n-9">
          <mxGeometry relative="1" as="geometry" />
        </mxCell>
        <mxCell id="c1GoCJi3KVozLX8m_W8n-8" value="Ввод attempt" style="shape=parallelogram;perimeter=parallelogramPerimeter;whiteSpace=wrap;html=1;fixedSize=1;" vertex="1" parent="1">
          <mxGeometry x="310" y="580" width="170" height="60" as="geometry" />
        </mxCell>
        <mxCell id="c1GoCJi3KVozLX8m_W8n-23" style="edgeStyle=orthogonalEdgeStyle;rounded=0;orthogonalLoop=1;jettySize=auto;html=1;exitX=0;exitY=0.5;exitDx=0;exitDy=0;entryX=0.5;entryY=0;entryDx=0;entryDy=0;" edge="1" parent="1" source="c1GoCJi3KVozLX8m_W8n-9" target="c1GoCJi3KVozLX8m_W8n-10">
          <mxGeometry relative="1" as="geometry" />
        </mxCell>
        <mxCell id="c1GoCJi3KVozLX8m_W8n-24" style="edgeStyle=orthogonalEdgeStyle;rounded=0;orthogonalLoop=1;jettySize=auto;html=1;exitX=1;exitY=0.5;exitDx=0;exitDy=0;entryX=0.5;entryY=0;entryDx=0;entryDy=0;" edge="1" parent="1" source="c1GoCJi3KVozLX8m_W8n-9" target="c1GoCJi3KVozLX8m_W8n-12">
          <mxGeometry relative="1" as="geometry" />
        </mxCell>
        <mxCell id="c1GoCJi3KVozLX8m_W8n-9" value="&lt;span&gt;attempt == num?&lt;/span&gt;" style="rhombus;whiteSpace=wrap;html=1;" vertex="1" parent="1">
          <mxGeometry x="310" y="670" width="170" height="80" as="geometry" />
        </mxCell>
        <mxCell id="c1GoCJi3KVozLX8m_W8n-21" value="" style="edgeStyle=orthogonalEdgeStyle;rounded=0;orthogonalLoop=1;jettySize=auto;html=1;" edge="1" parent="1" source="c1GoCJi3KVozLX8m_W8n-10" target="c1GoCJi3KVozLX8m_W8n-20">
          <mxGeometry relative="1" as="geometry" />
        </mxCell>
        <mxCell id="c1GoCJi3KVozLX8m_W8n-10" value="Вывод &quot;Вы угадали!&quot;" style="rounded=0;whiteSpace=wrap;html=1;" vertex="1" parent="1">
          <mxGeometry x="130" y="760" width="120" height="60" as="geometry" />
        </mxCell>
        <mxCell id="c1GoCJi3KVozLX8m_W8n-11" value="КОНЕЦ" style="ellipse;whiteSpace=wrap;html=1;" vertex="1" parent="1">
          <mxGeometry x="130" y="1170" width="120" height="80" as="geometry" />
        </mxCell>
        <mxCell id="c1GoCJi3KVozLX8m_W8n-27" style="edgeStyle=orthogonalEdgeStyle;rounded=0;orthogonalLoop=1;jettySize=auto;html=1;exitX=0;exitY=0.5;exitDx=0;exitDy=0;entryX=0.5;entryY=0;entryDx=0;entryDy=0;" edge="1" parent="1" source="c1GoCJi3KVozLX8m_W8n-12" target="c1GoCJi3KVozLX8m_W8n-25">
          <mxGeometry relative="1" as="geometry" />
        </mxCell>
        <mxCell id="c1GoCJi3KVozLX8m_W8n-28" style="edgeStyle=orthogonalEdgeStyle;rounded=0;orthogonalLoop=1;jettySize=auto;html=1;exitX=1;exitY=0.5;exitDx=0;exitDy=0;entryX=0.5;entryY=0;entryDx=0;entryDy=0;" edge="1" parent="1" source="c1GoCJi3KVozLX8m_W8n-12" target="c1GoCJi3KVozLX8m_W8n-26">
          <mxGeometry relative="1" as="geometry" />
        </mxCell>
        <mxCell id="c1GoCJi3KVozLX8m_W8n-12" value="attempt &amp;gt; num?" style="rhombus;whiteSpace=wrap;html=1;" vertex="1" parent="1">
          <mxGeometry x="530" y="750" width="150" height="80" as="geometry" />
        </mxCell>
        <mxCell id="c1GoCJi3KVozLX8m_W8n-17" value="" style="edgeStyle=orthogonalEdgeStyle;rounded=0;orthogonalLoop=1;jettySize=auto;html=1;" edge="1" parent="1" source="c1GoCJi3KVozLX8m_W8n-13" target="c1GoCJi3KVozLX8m_W8n-5">
          <mxGeometry relative="1" as="geometry" />
        </mxCell>
        <mxCell id="c1GoCJi3KVozLX8m_W8n-13" value="win = 0" style="shape=parallelogram;perimeter=parallelogramPerimeter;whiteSpace=wrap;html=1;fixedSize=1;" vertex="1" parent="1">
          <mxGeometry x="310" y="330" width="170" height="60" as="geometry" />
        </mxCell>
        <mxCell id="c1GoCJi3KVozLX8m_W8n-40" style="edgeStyle=orthogonalEdgeStyle;rounded=0;orthogonalLoop=1;jettySize=auto;html=1;exitX=0.5;exitY=1;exitDx=0;exitDy=0;entryX=0.5;entryY=0;entryDx=0;entryDy=0;" edge="1" parent="1" source="c1GoCJi3KVozLX8m_W8n-20" target="c1GoCJi3KVozLX8m_W8n-35">
          <mxGeometry relative="1" as="geometry" />
        </mxCell>
        <mxCell id="c1GoCJi3KVozLX8m_W8n-20" value="win = 1" style="whiteSpace=wrap;html=1;" vertex="1" parent="1">
          <mxGeometry x="130" y="840" width="120" height="60" as="geometry" />
        </mxCell>
        <mxCell id="c1GoCJi3KVozLX8m_W8n-33" style="edgeStyle=orthogonalEdgeStyle;rounded=0;orthogonalLoop=1;jettySize=auto;html=1;exitX=0.5;exitY=1;exitDx=0;exitDy=0;entryX=1;entryY=0.5;entryDx=0;entryDy=0;" edge="1" parent="1" source="c1GoCJi3KVozLX8m_W8n-25" target="c1GoCJi3KVozLX8m_W8n-7">
          <mxGeometry relative="1" as="geometry">
            <Array as="points">
              <mxPoint x="440" y="920" />
              <mxPoint x="860" y="920" />
              <mxPoint x="860" y="520" />
            </Array>
          </mxGeometry>
        </mxCell>
        <mxCell id="c1GoCJi3KVozLX8m_W8n-25" value="Вывод &quot;Я загадал меньшее число&quot;" style="rounded=0;whiteSpace=wrap;html=1;" vertex="1" parent="1">
          <mxGeometry x="380" y="840" width="120" height="60" as="geometry" />
        </mxCell>
        <mxCell id="c1GoCJi3KVozLX8m_W8n-34" style="edgeStyle=orthogonalEdgeStyle;rounded=0;orthogonalLoop=1;jettySize=auto;html=1;exitX=0.5;exitY=1;exitDx=0;exitDy=0;entryX=1;entryY=0.5;entryDx=0;entryDy=0;" edge="1" parent="1" source="c1GoCJi3KVozLX8m_W8n-26" target="c1GoCJi3KVozLX8m_W8n-7">
          <mxGeometry relative="1" as="geometry">
            <Array as="points">
              <mxPoint x="767" y="920" />
              <mxPoint x="860" y="920" />
              <mxPoint x="860" y="520" />
            </Array>
          </mxGeometry>
        </mxCell>
        <mxCell id="c1GoCJi3KVozLX8m_W8n-26" value="Вывод &quot;Я загадал большее число!&quot;" style="rounded=0;whiteSpace=wrap;html=1;" vertex="1" parent="1">
          <mxGeometry x="707" y="840" width="120" height="60" as="geometry" />
        </mxCell>
        <mxCell id="c1GoCJi3KVozLX8m_W8n-44" style="edgeStyle=orthogonalEdgeStyle;rounded=0;orthogonalLoop=1;jettySize=auto;html=1;exitX=0;exitY=0.5;exitDx=0;exitDy=0;entryX=0.5;entryY=0;entryDx=0;entryDy=0;" edge="1" parent="1" source="c1GoCJi3KVozLX8m_W8n-35" target="c1GoCJi3KVozLX8m_W8n-42">
          <mxGeometry relative="1" as="geometry" />
        </mxCell>
        <mxCell id="c1GoCJi3KVozLX8m_W8n-45" style="edgeStyle=orthogonalEdgeStyle;rounded=0;orthogonalLoop=1;jettySize=auto;html=1;exitX=1;exitY=0.5;exitDx=0;exitDy=0;entryX=0.5;entryY=0;entryDx=0;entryDy=0;" edge="1" parent="1" source="c1GoCJi3KVozLX8m_W8n-35" target="c1GoCJi3KVozLX8m_W8n-43">
          <mxGeometry relative="1" as="geometry" />
        </mxCell>
        <mxCell id="c1GoCJi3KVozLX8m_W8n-35" value="win == 0?" style="rhombus;whiteSpace=wrap;html=1;" vertex="1" parent="1">
          <mxGeometry x="115" y="960" width="150" height="90" as="geometry" />
        </mxCell>
        <mxCell id="c1GoCJi3KVozLX8m_W8n-36" value="ДА" style="text;html=1;align=center;verticalAlign=middle;resizable=0;points=[];autosize=1;strokeColor=none;" vertex="1" parent="1">
          <mxGeometry x="485" y="770" width="30" height="20" as="geometry" />
        </mxCell>
        <mxCell id="c1GoCJi3KVozLX8m_W8n-37" value="НЕТ" style="text;html=1;align=center;verticalAlign=middle;resizable=0;points=[];autosize=1;strokeColor=none;" vertex="1" parent="1">
          <mxGeometry x="670" y="770" width="40" height="20" as="geometry" />
        </mxCell>
        <mxCell id="c1GoCJi3KVozLX8m_W8n-38" value="ДА" style="text;html=1;align=center;verticalAlign=middle;resizable=0;points=[];autosize=1;strokeColor=none;" vertex="1" parent="1">
          <mxGeometry x="265" y="680" width="30" height="20" as="geometry" />
        </mxCell>
        <mxCell id="c1GoCJi3KVozLX8m_W8n-39" value="НЕТ" style="text;html=1;align=center;verticalAlign=middle;resizable=0;points=[];autosize=1;strokeColor=none;" vertex="1" parent="1">
          <mxGeometry x="480" y="680" width="40" height="20" as="geometry" />
        </mxCell>
        <mxCell id="c1GoCJi3KVozLX8m_W8n-49" style="edgeStyle=orthogonalEdgeStyle;rounded=0;orthogonalLoop=1;jettySize=auto;html=1;exitX=0.5;exitY=1;exitDx=0;exitDy=0;" edge="1" parent="1" source="c1GoCJi3KVozLX8m_W8n-42">
          <mxGeometry relative="1" as="geometry">
            <mxPoint x="190" y="1170" as="targetPoint" />
          </mxGeometry>
        </mxCell>
        <mxCell id="c1GoCJi3KVozLX8m_W8n-42" value="Вывод сообщения о проигрыше" style="whiteSpace=wrap;html=1;" vertex="1" parent="1">
          <mxGeometry x="-20" y="1050" width="120" height="60" as="geometry" />
        </mxCell>
        <mxCell id="c1GoCJi3KVozLX8m_W8n-48" style="edgeStyle=orthogonalEdgeStyle;rounded=0;orthogonalLoop=1;jettySize=auto;html=1;exitX=0.5;exitY=1;exitDx=0;exitDy=0;entryX=0.5;entryY=0;entryDx=0;entryDy=0;" edge="1" parent="1" source="c1GoCJi3KVozLX8m_W8n-43" target="c1GoCJi3KVozLX8m_W8n-11">
          <mxGeometry relative="1" as="geometry" />
        </mxCell>
        <mxCell id="c1GoCJi3KVozLX8m_W8n-43" value="Вывод сообщения о победе" style="whiteSpace=wrap;html=1;" vertex="1" parent="1">
          <mxGeometry x="280" y="1050" width="120" height="60" as="geometry" />
        </mxCell>
        <mxCell id="c1GoCJi3KVozLX8m_W8n-46" value="ДА" style="text;html=1;align=center;verticalAlign=middle;resizable=0;points=[];autosize=1;strokeColor=none;" vertex="1" parent="1">
          <mxGeometry x="75" y="980" width="30" height="20" as="geometry" />
        </mxCell>
        <mxCell id="c1GoCJi3KVozLX8m_W8n-47" value="НЕТ" style="text;html=1;align=center;verticalAlign=middle;resizable=0;points=[];autosize=1;strokeColor=none;" vertex="1" parent="1">
          <mxGeometry x="250" y="980" width="40" height="20" as="geometry" />
        </mxCell>
      </root>
    </mxGraphModel>
  </diagram>
</mxfile>
